<svg id="Layer_1" data-name="Layer 1" xmlns="http://www.w3.org/2000/svg" viewBox="0 0 62 50"><defs><style>.cls-1{fill:#e41c1b;}</style></defs><path id="Path_5" data-name="Path 5" class="cls-1" d="M43.44,38.21c-2.66,0-5.34,0-8,0a1,1,0,0,1-1-1c0-1.65.33-1,2-1,4.73,0,9.26,0,14,0,5.2,0,9.11-4.81,9-10a8.49,8.49,0,0,0-6-8,1.31,1.31,0,0,1-1-1,9.49,9.49,0,0,0-10.73-8l-.27,0c-1.75.26-3.6-.06-5,1-.43.32-.83.43-1,0-2.19-5.34-7.22-8.07-13-8a13.45,13.45,0,0,0-13,12,8.89,8.89,0,0,0,0,3c.08.47.4.87,0,1a9.87,9.87,0,0,0-7,9,9,9,0,0,0,9,9c5.07,0,9.92,0,15,0a.9.9,0,0,1,1,.76,1,1,0,0,1,0,.24c-.05,1.47.47,1-1,1h-14c-6.77,0-12.46-5.26-12-12,.28-4.23,2.23-7,6-9,.41-.21,1-.51,1-1,0-8.14,5-14.55,13-16a15.92,15.92,0,0,1,16,7c.38.6.33.27,1,0,7-2.78,15,1.72,17,9,.11.44.57-.21,1,0,4.38,2.09,6.58,7.41,6,12-.66,5.16-4,9-9,10a13.68,13.68,0,0,1-3,0Z"/><path id="Path_6" data-name="Path 6" class="cls-1" d="M30.44,24.21c-2.38,2.39-4.81,4.76-7,7-.45.44-.55.5-1,0-1.13-1.21-1.16-.85,0-2,2.85-2.86,5.14-6.11,8-9,.35-.35.57-.42,1,0,3.1,3.14,6.87,6.9,10,10,.34.34.39-.32,0,0s-1.49,2-2,2-.59-1.59-1-2c-1.84-1.82-3.18-3.18-5-5l-1-1c-.2.27,0,.76,0,1,0,7.77,0,16.24,0,24,0,.64-.35,0-1,0-1.48,0-1,.47-1-1v-23C30.41,25,30.44,24.7,30.44,24.21Z"/></svg>